<svg width="512" height="512" viewBox="0 0 512 512" xmlns="http://www.w3.org/2000/svg" role="img" aria-label="Kairos">
  <defs>
    <linearGradient id="kairos-gold" x1="112" y1="72" x2="400" y2="440" gradientUnits="userSpaceOnUse">
      <stop offset="0" stop-color="#F0D58A"/>
      <stop offset="0.5" stop-color="#C9A14A"/>
      <stop offset="1" stop-color="#86641F"/>
    </linearGradient>
    <radialGradient id="kairos-glow" cx="50%" cy="30%" r="68%">
      <stop offset="0" stop-color="#8B6DE8" stop-opacity="0.24"/>
      <stop offset="0.56" stop-color="#211A3A" stop-opacity="0.22"/>
      <stop offset="1" stop-color="#0A0A0E" stop-opacity="0"/>
    </radialGradient>
    <filter id="soft-shadow" x="-20%" y="-20%" width="140%" height="140%">
      <feDropShadow dx="0" dy="10" stdDeviation="12" flood-color="#000000" flood-opacity="0.32"/>
    </filter>
  </defs>

  <rect width="512" height="512" rx="114" fill="#0A0A0E"/>
  <rect width="512" height="512" rx="114" fill="url(#kairos-glow)"/>

  <circle cx="256" cy="74" r="22" fill="#8B6DE8"/>
  <path d="M256 108V172" stroke="url(#kairos-gold)" stroke-width="8" stroke-linecap="round"/>

  <text
    x="256"
    y="352"
    text-anchor="middle"
    fill="url(#kairos-gold)"
    filter="url(#soft-shadow)"
    font-family="Lora, Georgia, 'Times New Roman', serif"
    font-size="238"
    font-weight="600"
    letter-spacing="0"
  >K</text>

  <path d="M363 147L376 176L405 189L376 202L363 231L350 202L321 189L350 176Z" fill="#8B6DE8"/>
  <path d="M151 318L160 339L181 348L160 357L151 378L142 357L121 348L142 339Z" fill="url(#kairos-gold)" opacity="0.86"/>

  <path d="M256 405V446" stroke="url(#kairos-gold)" stroke-width="8" stroke-linecap="round"/>
  <path d="M256 486L237 449H275Z" fill="url(#kairos-gold)"/>
</svg>
